<svg width="16" height="15" viewBox="0 0 16 15" fill="none" xmlns="http://www.w3.org/2000/svg">
<path fill-rule="evenodd" clip-rule="evenodd" d="M1.74596 1.2538C2.15809 0.841666 2.82628 0.841666 3.23841 1.2538L14.346 12.3613C14.7581 12.7735 14.7581 13.4417 14.346 13.8538C13.9338 14.2659 13.2656 14.2659 12.8535 13.8538L1.74596 2.74625C1.33383 2.33412 1.33383 1.66593 1.74596 1.2538Z" fill="white"/>
<path fill-rule="evenodd" clip-rule="evenodd" d="M1.65345 13.8539C1.24132 13.4418 1.24132 12.7736 1.65345 12.3614L12.761 1.25389C13.1731 0.841764 13.8413 0.841764 14.2535 1.25389C14.6656 1.66602 14.6656 2.33422 14.2535 2.74635L3.14591 13.8539C2.73378 14.266 2.06558 14.266 1.65345 13.8539Z" fill="white"/>
</svg>
