<svg width="15" height="15" viewBox="0 0 15 15" fill="none" xmlns="http://www.w3.org/2000/svg">
<path fill-rule="evenodd" clip-rule="evenodd" d="M1.71919 1.2278C2.11644 0.801306 2.76051 0.801306 3.15776 1.2278L13.7582 12.6086C14.1554 13.035 14.1554 13.7265 13.7582 14.153C13.3609 14.5795 12.7169 14.5795 12.3196 14.153L1.71919 2.77226C1.32194 2.34577 1.32194 1.65429 1.71919 1.2278Z" fill="#141024"/>
<path fill-rule="evenodd" clip-rule="evenodd" d="M1.24174 14.2278C0.844495 13.8013 0.844495 13.1098 1.24174 12.6833L11.8422 1.30258C12.2394 0.876087 12.8835 0.876087 13.2807 1.30258C13.678 1.72907 13.678 2.42055 13.2807 2.84704L2.68031 14.2278C2.28306 14.6543 1.63899 14.6543 1.24174 14.2278Z" fill="#141024"/>
</svg>
