<?xml version="1.0" encoding="utf-8"?><svg viewBox="0 0 26 24" xmlns="http://www.w3.org/2000/svg" xmlns:xlink="http://www.w3.org/1999/xlink"><style>:root>svg{display:none}:root>svg:target{display:block}</style><svg viewBox="0 0 9 15" id="arrow-right" xmlns="http://www.w3.org/2000/svg"><path d="M.377 2.133A1.242 1.242 0 011.26 0c.317 0 .634.117.867.367L7.944 6.15a1.249 1.249 0 010 1.767L2.127 13.7c-.483.5-1.267.5-1.767 0a1.243 1.243 0 01.017-1.767l4.917-4.9-4.917-4.9z"/></svg><svg viewBox="0 0 16 15" id="burger-close" xmlns="http://www.w3.org/2000/svg"><path fill-rule="evenodd" clip-rule="evenodd" d="M1.746 1.254a1.055 1.055 0 011.492 0L14.346 12.36a1.055 1.055 0 01-1.492 1.493L1.745 2.746a1.055 1.055 0 010-1.492z"/><path fill-rule="evenodd" clip-rule="evenodd" d="M1.653 13.854a1.055 1.055 0 010-1.493L12.761 1.254a1.055 1.055 0 011.493 1.492L3.146 13.854a1.055 1.055 0 01-1.493 0z"/></svg><svg viewBox="0 0 26 12" id="burger-open" xmlns="http://www.w3.org/2000/svg"><path fill-rule="evenodd" clip-rule="evenodd" d="M0 1a1 1 0 011-1h24a1 1 0 110 2H1a1 1 0 01-1-1zm0 5a1 1 0 011-1h24a1 1 0 110 2H1a1 1 0 01-1-1zm0 5a1 1 0 011-1h11a1 1 0 110 2H1a1 1 0 01-1-1z"/></svg><svg viewBox="0 0 24 24" id="check" xmlns="http://www.w3.org/2000/svg"><path d="M20.285 2L9 13.567 3.714 8.556 0 12.272 9 21 24 5.715z"/></svg><svg viewBox="0 0 15 15" id="close" xmlns="http://www.w3.org/2000/svg"><path fill-rule="evenodd" clip-rule="evenodd" d="M1.72 1.228a.969.969 0 011.438 0l10.6 11.38a1.15 1.15 0 010 1.545.969.969 0 01-1.438 0L1.72 2.773a1.15 1.15 0 010-1.545z"/><path fill-rule="evenodd" clip-rule="evenodd" d="M1.242 14.228a1.15 1.15 0 010-1.545l10.6-11.38a.969.969 0 011.439 0 1.15 1.15 0 010 1.544l-10.6 11.38a.969.969 0 01-1.44 0z"/></svg><svg viewBox="0 0 24 24" id="facebook" xmlns="http://www.w3.org/2000/svg"><path d="M9 8H6v4h3v12h5V12h3.642L18 8h-4V6.333C14 5.378 14.192 5 15.115 5H18V0h-3.808C10.596 0 9 1.583 9 4.615V8z"/></svg><svg viewBox="0 0 24 24" id="instagram" xmlns="http://www.w3.org/2000/svg"><path d="M12 2.163c3.204 0 3.584.012 4.85.07 3.252.148 4.771 1.691 4.919 4.919.058 1.265.069 1.645.069 4.849 0 3.205-.012 3.584-.069 4.849-.149 3.225-1.664 4.771-4.919 4.919-1.266.058-1.644.07-4.85.07-3.204 0-3.584-.012-4.849-.07-3.26-.149-4.771-1.699-4.919-4.92-.058-1.265-.07-1.644-.07-4.849 0-3.204.013-3.583.07-4.849.149-3.227 1.664-4.771 4.919-4.919 1.266-.057 1.645-.069 4.849-.069zM12 0C8.741 0 8.333.014 7.053.072 2.695.272.273 2.69.073 7.052.014 8.333 0 8.741 0 12c0 3.259.014 3.668.072 4.948.2 4.358 2.618 6.78 6.98 6.98C8.333 23.986 8.741 24 12 24c3.259 0 3.668-.014 4.948-.072 4.354-.2 6.782-2.618 6.979-6.98.059-1.28.073-1.689.073-4.948 0-3.259-.014-3.667-.072-4.947-.196-4.354-2.617-6.78-6.979-6.98C15.668.014 15.259 0 12 0zm0 5.838a6.162 6.162 0 100 12.324 6.162 6.162 0 000-12.324zM12 16a4 4 0 110-8 4 4 0 010 8zm6.406-11.845a1.44 1.44 0 100 2.881 1.44 1.44 0 000-2.881z"/></svg><svg viewBox="0 0 20 20" id="phone" xmlns="http://www.w3.org/2000/svg"><path d="M16.167 12.38c-.672-.145-1.203.167-1.674.44-.482.28-1.398 1.023-1.923.833-2.689-1.107-5.218-3.46-6.313-6.16-.193-.537.547-1.459.826-1.946.27-.472.576-1.008.436-1.685-.126-.608-1.754-2.68-2.33-3.247-.38-.374-.768-.58-1.168-.613C2.521-.062.844 1.941.55 2.42c-.736 1.022-.732 2.382.013 4.03 1.795 4.429 8.585 11.112 13.03 12.975.82.383 1.57.575 2.245.575.659 0 1.246-.183 1.75-.548.381-.22 2.467-1.98 2.412-3.521-.033-.393-.238-.786-.608-1.167-.562-.58-2.62-2.257-3.224-2.384"/></svg></svg>